<svg width="184" height="86" viewBox="0 0 184 86" fill="none" xmlns="http://www.w3.org/2000/svg">
<g clip-path="url(#clip0_1_7026)">
<rect x="-6.10352e-05" width="184" height="86" rx="12" fill="#F1F4F8"/>
<path d="M81.6279 47.1062C81.6219 47.0881 81.624 47.0775 81.6262 47.0709C81.6294 47.0622 81.6362 47.0517 81.6479 47.0432C81.6596 47.0346 81.6715 47.0311 81.6807 47.0308C81.6877 47.0304 81.6984 47.0317 81.7139 47.0428L84.0032 48.6921C84.2204 48.8487 84.5133 48.847 84.7288 48.6879L86.9991 47.0124C87.0145 47.0011 87.025 46.9998 87.0321 47C87.0413 47.0002 87.0533 47.0036 87.0651 47.0121C87.0768 47.0205 87.0839 47.0309 87.087 47.0396C87.0895 47.0462 87.0916 47.0567 87.0858 47.0749L86.2304 49.7698C86.1491 50.0255 86.2413 50.3046 86.4586 50.4611L86.6222 50.2323L86.4586 50.4611L88.7478 52.1104C88.7633 52.1216 88.7679 52.1313 88.7699 52.138C88.7725 52.1469 88.7729 52.1594 88.7685 52.1733C88.7641 52.187 88.7565 52.1969 88.7493 52.2027C88.7437 52.2071 88.7345 52.2124 88.7154 52.2125L85.8974 52.2287C85.6301 52.2302 85.394 52.4044 85.3128 52.6601L84.4574 55.355C84.4516 55.3732 84.4437 55.3805 84.438 55.3845C84.4304 55.3898 84.4187 55.3941 84.4042 55.3942C84.3897 55.3943 84.3781 55.39 84.3704 55.3849C84.3646 55.381 84.3566 55.3737 84.3507 55.3555L83.4645 52.6707C83.3804 52.4159 83.1424 52.2445 82.875 52.2461L80.0571 52.2623C80.038 52.2624 80.0286 52.2571 80.0231 52.2528C80.0156 52.2472 80.008 52.2374 80.0034 52.2236C79.9989 52.2099 79.9993 52.1974 80.0017 52.1885C80.0038 52.1816 80.0081 52.1718 80.0235 52.1606L82.2937 50.4851C82.5092 50.326 82.5981 50.0459 82.514 49.7911L81.6279 47.1062Z" stroke="#111B29" stroke-width="1.2"/>
<path d="M118.628 13.1062C118.622 13.0881 118.624 13.0775 118.626 13.0709C118.629 13.0622 118.636 13.0517 118.648 13.0432C118.66 13.0346 118.671 13.0311 118.681 13.0308C118.688 13.0304 118.698 13.0317 118.714 13.0428L121.003 14.6921C121.22 14.8487 121.513 14.847 121.729 14.6879L123.999 13.0124C124.014 13.0011 124.025 12.9998 124.032 13C124.041 13.0002 124.053 13.0036 124.065 13.0121C124.077 13.0205 124.084 13.0309 124.087 13.0396C124.089 13.0462 124.092 13.0567 124.086 13.0749L123.23 15.7698C123.149 16.0255 123.241 16.3046 123.459 16.4611L123.622 16.2323L123.459 16.4611L125.748 18.1104C125.763 18.1216 125.768 18.1313 125.77 18.138C125.772 18.1469 125.773 18.1594 125.769 18.1733C125.764 18.187 125.757 18.1969 125.749 18.2027C125.744 18.2071 125.735 18.2124 125.715 18.2125L122.897 18.2287C122.63 18.2302 122.394 18.4044 122.313 18.6601L121.457 21.355C121.452 21.3732 121.444 21.3805 121.438 21.3845C121.43 21.3898 121.419 21.3941 121.404 21.3942C121.39 21.3943 121.378 21.39 121.37 21.3849C121.365 21.381 121.357 21.3737 121.351 21.3555L120.464 18.6707C120.38 18.4159 120.142 18.2445 119.875 18.2461L117.057 18.2623C117.038 18.2624 117.029 18.2571 117.023 18.2528C117.016 18.2472 117.008 18.2374 117.003 18.2236C116.999 18.2099 116.999 18.1974 117.002 18.1885C117.004 18.1816 117.008 18.1718 117.024 18.1606L119.294 16.4851C119.509 16.326 119.598 16.0459 119.514 15.7911L118.628 13.1062Z" stroke="#111B29" stroke-width="1.2"/>
<rect x="81.5999" y="16.3649" width="26.8" height="16.4652" rx="0.601717" stroke="#111B29" stroke-width="1.2"/>
<path d="M102.391 30.0654L106.717 30.0654M103.899 31.2671L106.717 31.2671" stroke="#111B29" stroke-width="1.2" stroke-linecap="round"/>
<path d="M84.374 26.8601C85.3339 26.7727 87.592 27.3431 89.1077 30.2727C89.1533 30.361 89.2812 30.3629 89.3264 30.2744C90.8742 27.2483 92.7826 24.1989 98.7562 27.857C98.8624 27.9221 99.0015 27.8018 98.9499 27.6884C97.9906 25.5759 97.5096 21.6311 101.988 19.6512C102.092 19.605 102.087 19.4495 101.977 19.4175L100.906 19.1044C100.782 19.0683 100.796 18.8997 100.924 18.889C102.134 18.7884 103.774 18.8702 103.195 19.5737C102.505 20.4107 102.336 20.9399 102.504 21.8138" stroke="#111B29" stroke-width="1.2" stroke-linecap="round"/>
<path d="M85.5278 18.242C85.3547 18.2791 85.1895 18.3335 85.0332 18.4017L85.1171 18.7928C84.9089 18.8929 84.7221 19.0219 84.5591 19.1769L84.2233 18.9597C84.1017 19.084 83.9959 19.222 83.9018 19.3675C83.8077 19.5129 83.7253 19.6661 83.6618 19.828L83.9976 20.0451C83.9231 20.2573 83.882 20.4806 83.8761 20.7116L83.4851 20.7954C83.4869 20.9659 83.505 21.1389 83.5422 21.312C83.5793 21.4851 83.6337 21.6504 83.702 21.8066L84.093 21.7227C84.1931 21.9309 84.3221 22.1178 84.4771 22.2807L84.2599 22.6165C84.3842 22.7381 84.5222 22.844 84.6677 22.9381C84.8131 23.0321 84.9663 23.1145 85.1282 23.1781L85.3454 22.8423C85.5575 22.9168 85.7808 22.9578 86.0118 22.9637L86.0957 23.3548C86.2661 23.3529 86.4391 23.3348 86.6122 23.2977C86.7854 23.2605 86.9506 23.2061 87.1068 23.1379L87.0229 22.7468C87.2312 22.6467 87.418 22.5177 87.5809 22.3627L87.9167 22.5799C88.0383 22.4556 88.1442 22.3176 88.2383 22.1722C88.3323 22.0267 88.4148 21.8735 88.4783 21.7117L88.1425 21.4945C88.217 21.2823 88.258 21.059 88.2639 20.828L88.655 20.7442C88.6531 20.5737 88.635 20.4007 88.5979 20.2276C88.5607 20.0545 88.5063 19.8893 88.4381 19.733L88.0471 19.8169C87.9469 19.6087 87.8179 19.4218 87.6629 19.2589L87.8801 18.9231C87.7558 18.8015 87.6178 18.6956 87.4724 18.6016C87.3269 18.5075 87.1737 18.4251 87.0119 18.3616L86.7947 18.6973C86.5825 18.6228 86.3592 18.5818 86.1283 18.5759L86.0444 18.1849C85.8739 18.1867 85.7009 18.2048 85.5278 18.242ZM85.7989 19.5059C86.4966 19.3562 87.1843 19.801 87.3339 20.4987C87.4836 21.1964 87.0388 21.8841 86.3411 22.0337C85.6434 22.1834 84.9557 21.7386 84.8061 21.0409C84.6564 20.3432 85.1012 19.6555 85.7989 19.5059Z" fill="#111B29"/>
<path d="M29.9865 52.9819C29.6668 54.1391 29.4284 57.8991 30.6841 60.9844" stroke="#111B29" stroke-width="1.2" stroke-linecap="round"/>
<path d="M28.9687 61.7406C31.9485 60.6729 37.6228 59.3662 37.6228 63.0599V63.7009C37.6228 64.1336 38.1173 64.3788 38.4593 64.1137C43.2429 60.4074 52.9762 52.9819 56.4058 47.3611" stroke="#111B29" stroke-width="1.2" stroke-linecap="round"/>
<path d="M42.1742 33.1663C45.1016 35.471 49.6449 40.4455 45.2288 42.4692C44.9699 42.5877 44.827 42.8746 44.9009 43.1482C45.7698 46.3656 45.6324 53.0092 38.8922 57.5083C38.7918 57.5752 38.7146 57.6747 38.678 57.789L37.3525 61.9371" stroke="#111B29" stroke-width="1.2" stroke-linecap="round"/>
<path d="M39.2769 50.124C39.1728 50.5813 39.443 51.5264 41.3537 51.6483" stroke="#111B29" stroke-width="1.2" stroke-linecap="round"/>
<path d="M44.402 38.1203C44.402 39.1223 44.0991 40.0034 43.641 40.619C43.1828 41.2342 42.6028 41.55 42.0203 41.55C41.4378 41.55 40.8578 41.2342 40.3996 40.619C39.9416 40.0034 39.6386 39.1223 39.6386 38.1203C39.6386 37.1183 39.9416 36.2373 40.3996 35.6216C40.8578 35.0065 41.4378 34.6907 42.0203 34.6907C42.6028 34.6907 43.1828 35.0065 43.641 35.6216C44.0991 36.2373 44.402 37.1183 44.402 38.1203Z" stroke="#111B29" stroke-width="1.2" stroke-linecap="round"/>
<path d="M33.3515 41.1686L39.2581 39.0728" stroke="#111B29" stroke-width="1.2" stroke-linecap="round"/>
<path d="M37.9238 37.1676C38.0741 36.5325 38.6278 35.0716 39.6386 34.3096" stroke="#111B29" stroke-width="1.2" stroke-linecap="round"/>
<path d="M42.306 38.6918C42.7269 38.6918 43.0682 38.4359 43.0682 38.1202C43.0682 37.8045 42.7269 37.5486 42.306 37.5486C41.8851 37.5486 41.5439 37.8045 41.5439 38.1202C41.5439 38.4359 41.8851 38.6918 42.306 38.6918Z" fill="#111B29"/>
<path d="M39.7143 101.187C39.3635 97.4418 39.0827 89.1765 40.7672 86.0794C42.4515 82.9822 44.0699 78.5519 45.2082 76.7597C49.0361 74.5498 58.1587 66.0718 64.0272 49.8381" stroke="#111B29" stroke-width="1.2" stroke-linecap="round"/>
<path d="M28.9692 61.5562L7.05756 87.2785" stroke="#111B29" stroke-width="1.2" stroke-linecap="round"/>
<path d="M23.0619 68.606C19.5161 71.5594 10.5249 77.7905 2.92671 79.0866C1.15396 79.8169 -1.89803 81.8684 0.0774393 84.2312C2.0531 86.5942 3.37008 89.4717 3.78164 90.6147C4.09831 91.6631 4.88637 93.1243 6.78601 89.7707" stroke="#111B29" stroke-width="1.2" stroke-linecap="round"/>
<path d="M0.769542 85.1826C-0.702536 86.0507 -4.13523 87.7093 -6.08959 87.4006C-8.04397 87.0922 -9.34689 87.9151 -9.75406 88.3651C-9.97331 88.7188 -10.1111 89.4451 -8.90841 89.5224C-7.70573 89.5996 -6.27749 89.5545 -5.71376 89.5224" stroke="#111B29" stroke-width="1.2" stroke-linecap="round"/>
<path d="M38.6857 44.5985C38.8962 44.5985 39.0668 44.4704 39.0668 44.3127C39.0668 44.1549 38.8962 44.0269 38.6857 44.0269C38.4752 44.0269 38.3046 44.1549 38.3046 44.3127C38.3046 44.4704 38.4752 44.5985 38.6857 44.5985Z" fill="#111B29"/>
<path d="M39.9244 45.7417C40.0822 45.7417 40.2102 45.6563 40.2102 45.5511C40.2102 45.446 40.0822 45.3606 39.9244 45.3606C39.7667 45.3606 39.6386 45.446 39.6386 45.5511C39.6386 45.6563 39.7667 45.7417 39.9244 45.7417Z" fill="#111B29"/>
<path d="M37.1622 46.5038C37.2673 46.5038 37.3527 46.3333 37.3527 46.1228C37.3527 45.9122 37.2673 45.7417 37.1622 45.7417C37.057 45.7417 36.9716 45.9122 36.9716 46.1228C36.9716 46.3333 37.057 46.5038 37.1622 46.5038Z" fill="#111B29"/>
<path d="M9.00945 41.868C13.6398 33.2612 20.554 32.1791 23.4324 32.7137C29.4103 23.5596 37.6656 20.5397 42.6946 23.2765C46.718 25.4659 43.4223 30.9836 41.2713 33.4688L39.184 30.4489C37.7417 33.2423 33.6171 32.2105 31.5927 31.5813C33.3323 35.2305 36.1093 44.6616 30.2643 53.1928C24.4192 61.7242 17.0748 61.875 13.374 59.4214C9.95813 56.9993 4.37886 50.4748 9.00945 41.868Z" fill="#111B29"/>
<path d="M64.1326 49.9131C65.3901 48.3654 67.6633 45.9471 68.5822 44.2543L70.0816 41.6909C71.0972 40.0591 71.532 38.7289 71.9201 38.0076C72.0926 37.687 72.2 37.4435 72.4389 36.967C72.6557 36.5345 72.8465 36.0978 72.6951 35.7395C72.5792 35.4652 72.0958 34.985 71.0889 35.2591C70.082 35.5332 69.3953 36.3835 69.1778 36.7744C68.96 37.0983 68.0144 38.272 67.7554 38.5296C67.1535 39.1281 64.1886 41.6099 62.3395 40.1559" stroke="#111B29" stroke-width="1.2" stroke-linecap="round"/>
<path d="M63.1335 37.9123C64.4765 37.0495 67.083 35.4894 68.002 34.4407C68.9274 34.2061 71.1938 34.4999 70.9958 33.0615C70.9545 32.7618 70.1701 32.0361 68.9854 31.8135C68.1328 31.6533 67.5133 31.5981 66.7919 32.0687C66.383 32.3355 66.221 32.4307 65.6912 32.8533C65.2823 33.0744 65.0307 33.3244 64.6948 33.6013" stroke="#111B29" stroke-width="1.2" stroke-linecap="round"/>
<path d="M64.6425 33.8845C64.6425 33.8845 63.3794 33.8823 62.1668 34.4128C60.8421 34.9922 60.6176 35.2153 60.1058 35.5165C59.594 35.8177 58.5704 36.4201 58.1705 36.712C57.4629 37.2285 56.8199 37.8126 56.5669 38.1083C56.1232 38.7351 56.3829 39.2174 57.0815 40.4051" stroke="#111B29" stroke-width="1.2" stroke-linecap="round"/>
<path d="M57.2284 42.8937C57.2284 43.8 57.0225 45.9473 56.3938 47.7368" stroke="#111B29" stroke-width="1.2" stroke-linecap="round"/>
<path d="M69.7011 36.0831L57.5667 42.7132C56.1006 43.2866 55.0808 41.2771 56.6191 40.5986L61.971 37.7453M71.389 35.1379L73.6331 33.9246L72.5704 32.2253L71.0512 32.9927" stroke="#111B29" stroke-width="1.2" stroke-linecap="round"/>
<path d="M73.9359 33.7599L75.2011 31.8875" stroke="#111B29" stroke-width="1.2" stroke-linecap="round"/>
<path d="M72.8718 32.0671L75.2011 31.8875" stroke="#111B29" stroke-width="1.2" stroke-linecap="round"/>
<path d="M128.714 42.5773C127.819 41.5704 126.812 40.116 126.588 38.5497C126.434 37.4718 125.283 36.7223 124.574 36.7596" stroke="#111B29" stroke-width="1.2" stroke-linecap="round"/>
<path d="M124.686 38.5493C124.686 37.7289 124.753 36.1103 122.784 36.1999" stroke="#111B29" stroke-width="1.2" stroke-linecap="round"/>
<path d="M123.23 37.7665C122.932 36.9088 122.087 35.2829 120.565 36.0884" stroke="#111B29" stroke-width="1.2" stroke-linecap="round"/>
<path d="M122.002 38.7734C121.517 38.475 120.883 37.2518 120.435 35.6408C119.988 34.0297 117.638 32.6573 116.52 32.1725C115.923 31.9115 114.729 31.7697 114.729 33.2913C114.729 34.6338 118.019 35.7974 118.198 37.7665C118.377 39.7355 118.272 40.6007 118.198 40.7872C118.011 41.1601 117.347 41.6151 116.184 40.4516C115.02 39.288 113.499 38.9971 112.716 39.2209C112.044 39.4446 111.105 40.2054 112.716 41.4585C113.913 42.3894 117.84 44.1212 121.33 48.5068" stroke="#111B29" stroke-width="1.2" stroke-linecap="round"/>
<path d="M159.561 60.618C145.959 55.1507 137.276 45.4541 131.889 44.2026C122.092 41.9262 122.319 48.3455 123.716 50.874C123.732 50.9026 123.748 50.9251 123.77 50.9494C126.621 54.1051 138.509 67.1993 153.463 71.4053" stroke="#111B29" stroke-width="1.2" stroke-linecap="round"/>
<path d="M157.275 99.5779C157.846 101.61 159.942 106.323 163.753 108.914L157.275 99.5779ZM151.368 96.2435L158.894 98.4347L151.368 96.2435ZM158.513 102.245C159.339 99.5461 160.399 92.852 158.037 87.6694C155.084 81.1912 153.273 72.9029 154.702 67.3774C155.846 62.957 160.006 62.2964 161.943 62.5187C164.991 62.8685 170.25 66.52 169.945 76.4278C169.564 88.8126 166.706 99.3874 162.61 107.58L158.513 102.245Z" stroke="#111B29" stroke-width="1.2" stroke-linecap="round"/>
<path d="M181.333 81.3885C182.278 83.7068 184.416 89.6006 185.407 94.6307C182.675 96.5679 174.994 100.245 165.848 99.1017L151.368 96.2436C150.796 91.4486 150.729 79.2355 154.54 68.3368C154.54 67.3525 155.54 64.5956 157.751 63.3762" stroke="#111B29" stroke-width="1.2" stroke-linecap="round"/>
<path d="M180.52 89.6702C180.479 89.0586 181.608 84.6082 181.333 81.3886C181.18 79.5932 180.984 77.3532 180.738 74.6246C180.053 67.0031 177.34 61.1602 176.07 59.1912C174.8 57.2224 171.795 56.0407 169.413 56.8981" stroke="#111B29" stroke-width="1.2" stroke-linecap="round"/>
<path d="M161.873 58.2723C160.612 57.4967 151.132 58.2443 149.288 46.3185C146.133 46.3555 144.417 43.7705 146.825 42.6642C149.391 41.3406 149.199 38.9105 148.734 37.4786C147.994 35.6009 147.95 33.6294 148.109 33.217" stroke="#111B29" stroke-width="1.2" stroke-linecap="round"/>
<path d="M151.906 42.0321C151.455 42.0374 151.083 41.4934 151.075 40.8172C151.067 40.141 151.426 39.5884 151.877 39.5833C152.328 39.578 152.7 40.1219 152.708 40.7981C152.716 41.4744 152.357 42.0269 151.906 42.0321Z" fill="#111B29"/>
<path d="M153.83 38.0757C153.303 37.5131 151.942 36.6898 150.708 37.8991" stroke="#111B29" stroke-width="1.2" stroke-linecap="round"/>
<path d="M157.406 49.0347C156.438 50.5237 155.376 50.9465 153.312 49.9856" stroke="#111B29" stroke-width="1.2" stroke-linecap="round"/>
<path d="M165.328 38.5979C165.553 39.0902 165.74 40.2079 164.698 40.7399" stroke="#111B29" stroke-width="1.2" stroke-linecap="round"/>
<path d="M176.436 33.5421C177.663 40.2594 173.822 45.3161 171.036 49.2034C168.062 47.5964 163.187 43.775 165.057 43.3625C167.022 42.929 169.095 37.5687 167.186 35.9289C164.947 34.005 162.929 36.9159 162.544 39.1231L160.741 36.0044C161.251 33.823 161.451 29.9966 158.171 32.1417C154.891 34.2867 150.081 33.7249 148.085 33.1758C144.151 30.3596 138.038 23.7906 145.062 20.0445C150.905 16.9288 158.508 20.8679 163.149 24.4074C166.292 23.5778 174.761 24.3832 176.436 33.5421Z" fill="#111B29"/>
<path d="M170.818 48.7534C169.397 50.4633 168.692 51.8832 168.78 54.8245" stroke="#111B29" stroke-width="1.2" stroke-linecap="round"/>
</g>
<defs>
<clipPath id="clip0_1_7026">
<rect x="-6.10352e-05" width="184" height="86" rx="12" fill="white"/>
</clipPath>
</defs>
</svg>
