<svg width="184" height="86" viewBox="0 0 184 86" fill="none" xmlns="http://www.w3.org/2000/svg">
<g clip-path="url(#clip0_1_6837)">
<rect width="184" height="86" rx="12" fill="#F1F4F8"/>
<path d="M26.8459 53.2845C27.6896 53.2845 28.3735 52.5981 28.3735 51.7514C28.3735 50.9046 27.6896 50.2183 26.8459 50.2183C26.0023 50.2183 25.3184 50.9046 25.3184 51.7514C25.3184 52.5981 26.0023 53.2845 26.8459 53.2845Z" stroke="#111B29" stroke-width="1.2"/>
<path d="M29.8385 51.9072C32.9196 51.5889 37.7542 51.9654 38.3256 54.3574C38.897 56.7494 36.715 57.6242 35.5526 57.7627C31.127 58.4686 25.2588 58.1364 25.2588 54.3574" stroke="#111B29" stroke-width="1.2" stroke-linecap="round"/>
<path d="M28.7256 55.5252C28.9202 55.5252 29.0781 55.3668 29.0781 55.1714C29.0781 54.976 28.9202 54.8176 28.7256 54.8176C28.5309 54.8176 28.373 54.976 28.373 55.1714C28.373 55.3668 28.5309 55.5252 28.7256 55.5252Z" stroke="#111B29" stroke-width="1.2"/>
<path d="M32.133 55.1714C32.133 55.3432 31.9735 55.5252 31.7218 55.5252C31.4701 55.5252 31.3105 55.3432 31.3105 55.1714C31.3105 54.9996 31.4701 54.8176 31.7218 54.8176C31.9735 54.8176 32.133 54.9996 32.133 55.1714Z" stroke="#111B29" stroke-width="1.2"/>
<path d="M34.7177 55.5252C34.9124 55.5252 35.0703 55.3668 35.0703 55.1714C35.0703 54.976 34.9124 54.8176 34.7177 54.8176C34.5232 54.8176 34.3652 54.976 34.3652 55.1714C34.3652 55.3668 34.5232 55.5252 34.7177 55.5252Z" stroke="#111B29" stroke-width="1.2"/>
<path d="M134.388 26.8719C135.167 26.8719 135.798 26.2382 135.798 25.4567C135.798 24.6752 135.167 24.0415 134.388 24.0415C133.609 24.0415 132.978 24.6752 132.978 25.4567C132.978 26.2382 133.609 26.8719 134.388 26.8719Z" stroke="#111B29" stroke-width="1.2"/>
<path d="M137.158 24.2185C138.191 24.2185 141.144 24.2185 142.533 24.2185C143.657 24.2185 144.199 24.4683 144.199 26.2165C144.199 27.9151 144.185 30.1154 144.199 31.0034C144.208 31.6277 143.899 32.3187 142.865 32.4186C141.833 32.5185 137.686 32.4602 135.741 32.4186C135.018 32.4186 133.741 32.0077 133.741 30.3373V28.4642" stroke="#111B29" stroke-width="1.2" stroke-linecap="round"/>
<path d="M136.444 27.1667L139.029 28.9357" stroke="#111B29" stroke-width="1.2" stroke-linecap="round"/>
<path d="M139.029 28.9358L143.729 24.5723" stroke="#111B29" stroke-width="1.2" stroke-linecap="round"/>
<path d="M140.222 27.8743L141.506 29.1715L142.79 30.4688" stroke="#111B29" stroke-width="1.2" stroke-linecap="round"/>
<path d="M135.504 30.4688L137.399 27.8743" stroke="#111B29" stroke-width="1.2" stroke-linecap="round"/>
<path d="M54.6927 16.1112C54.6863 16.0922 54.6886 16.0812 54.6909 16.0742C54.6942 16.0651 54.7014 16.0542 54.7136 16.0452C54.7258 16.0362 54.7383 16.0326 54.7479 16.0322C54.7553 16.0319 54.7665 16.0332 54.7827 16.0448L57.1794 17.7715C57.4068 17.9354 57.7135 17.9336 57.9391 17.7671L60.3159 16.013C60.332 16.0012 60.3431 15.9998 60.3505 16C60.3601 16.0003 60.3727 16.0038 60.385 16.0126C60.3973 16.0215 60.4047 16.0323 60.408 16.0414C60.4105 16.0484 60.4128 16.0593 60.4067 16.0784L59.5112 18.8998C59.4261 19.1675 59.5226 19.4597 59.75 19.6235L59.9214 19.384L59.75 19.6235L62.1467 21.3503C62.1629 21.362 62.1677 21.3721 62.1698 21.3792C62.1725 21.3885 62.173 21.4016 62.1684 21.4161C62.1638 21.4305 62.1558 21.4408 62.1483 21.4469C62.1424 21.4515 62.1328 21.457 62.1128 21.4571L59.1625 21.4741C58.8826 21.4756 58.6355 21.6581 58.5504 21.9258L57.655 24.7471C57.6488 24.7662 57.6406 24.7739 57.6346 24.778C57.6266 24.7835 57.6144 24.788 57.5993 24.7881C57.5841 24.7883 57.5719 24.7838 57.5639 24.7785C57.5578 24.7743 57.5494 24.7667 57.5432 24.7477L56.6154 21.9369C56.5274 21.6701 56.2783 21.4906 55.9983 21.4923L53.0481 21.5093C53.0281 21.5094 53.0182 21.5038 53.0125 21.4993C53.0047 21.4934 52.9967 21.4832 52.9919 21.4688C52.9872 21.4544 52.9876 21.4413 52.9902 21.432C52.9923 21.4248 52.9969 21.4146 53.013 21.4028L55.3897 19.6486C55.6153 19.4821 55.7084 19.1888 55.6204 18.922L54.6927 16.1112Z" stroke="#111B29" stroke-width="1.2"/>
<path d="M91.0869 70.0254V80.0497" stroke="#111B29" stroke-width="1.2" stroke-linecap="round"/>
<path d="M98.6074 71.2043V80.7569" stroke="#111B29" stroke-width="1.2" stroke-linecap="round"/>
<path d="M68.5946 68.4223L70.17 97.1555C70.2043 97.7808 70.7193 98.2701 71.3432 98.2701H115.294C115.943 98.2701 116.469 97.7421 116.469 97.0908V67.7416C116.469 67.084 115.933 66.5535 115.278 66.5624L69.752 67.1783C69.084 67.1873 68.5578 67.7528 68.5946 68.4223Z" fill="#111B29"/>
<path d="M98.7256 54.1043C102.819 54.0454 111.827 57.1706 115.411 67.018" stroke="#111B29" stroke-width="1.2" stroke-linecap="round"/>
<path d="M89.7371 54.0454C80.3956 55.8734 75.9304 59.8831 72.4053 67.6077" stroke="#111B29" stroke-width="1.2" stroke-linecap="round"/>
<path d="M120.992 63.3721L123.284 59.5393" stroke="#111B29" stroke-width="1.2" stroke-linecap="round"/>
<path d="M123.284 64.4334L126.398 61.8389" stroke="#111B29" stroke-width="1.2" stroke-linecap="round"/>
<path d="M123.754 66.2026C124.361 66.4384 125.74 66.6625 126.398 65.6719" stroke="#111B29" stroke-width="1.2" stroke-linecap="round"/>
<path d="M63.6501 62.6545L60.125 58.9985" stroke="#111B29" stroke-width="1.2" stroke-linecap="round"/>
<path d="M67.2342 62.0647L65.1191 56.5808" stroke="#111B29" stroke-width="1.2" stroke-linecap="round"/>
<path d="M62.7688 64.7182L60.125 63.7158" stroke="#111B29" stroke-width="1.2" stroke-linecap="round"/>
<path d="M117.762 73.6323C119.936 77.0524 122.403 81.1211 117.762 88.7767" stroke="#111B29" stroke-width="1.2" stroke-linecap="round"/>
<path d="M98.7833 54.3993C99.312 52.8662 98.8303 51.8345 98.3603 51.6379C95.5401 54.2325 91.263 53.2693 89.6767 51.6969C89.1126 52.2158 89.4417 53.7507 89.6767 54.2224C92.7318 57.6189 97.0795 55.7162 98.7833 54.3993Z" fill="#111B29"/>
<path d="M86.2695 63.8336L87.2131 62.3801C88.1327 60.9634 89.9225 60.3978 91.485 61.0301L93.7336 61.9401C95.1365 62.508 96.744 62.1141 97.7284 60.9614L100.311 57.937" stroke="#111B29" stroke-width="1.2" stroke-linecap="round"/>
<path d="M67.8812 75.804C66.9999 77.8875 65.9542 82.9389 68.8212 86.4769" stroke="#111B29" stroke-width="1.2" stroke-linecap="round"/>
<path d="M106.885 30.2945C105.592 34.9528 104.946 35.3656 103.066 37.4294C103.066 35.3897 102.717 31.9662 102.717 30.5406C96.5608 30.5406 91.3655 28.0185 89.5373 26.7574C89.6029 31.034 85.6081 33.8303 85.6081 33.8303C85.6081 33.8303 86.1811 35.5574 86.5085 39.4229C86.7705 42.5152 86.0174 41.9177 85.6081 41.2322C84.4293 37.4162 82.4973 38.4359 81.6787 39.4229C71.6336 23.0416 87.0815 19.8763 90.0284 20.1778C92.255 18.2698 95.3603 16.7745 97.5431 16.5553C105.416 15.7643 108.981 22.7411 106.885 30.2945Z" fill="#111B29"/>
<path d="M85.7461 44.148C86.8036 50.6279 93.9018 55.2873 99.0241 50.0382C104.146 44.789 103.121 35.1808 102.574 30.6973" stroke="#111B29" stroke-width="1.2" stroke-linecap="round"/>
<path d="M81.5634 39.0212C80.9171 40.6133 81.5235 44.1412 85.7466 44.1412" stroke="#111B29" stroke-width="1.2" stroke-linecap="round"/>
<path d="M83.425 39.896C83.3316 40.2366 83.4064 41.0438 84.4531 41.5471" stroke="#111B29" stroke-width="1.2" stroke-linecap="round"/>
<path d="M102.432 43.3161C103.81 42.7393 104.782 40.6036 104.408 37.1836" stroke="#111B29" stroke-width="1.2" stroke-linecap="round"/>
<path d="M94.6768 47.2078C96.0281 47.5616 95.9426 46.5879 96.9681 45.7336" stroke="#111B29" stroke-width="1.2" stroke-linecap="round"/>
<path d="M98.7104 39.8544C99.1971 39.8544 99.5917 39.4584 99.5917 38.9699C99.5917 38.4815 99.1971 38.0854 98.7104 38.0854C98.2237 38.0854 97.8291 38.4815 97.8291 38.9699C97.8291 39.4584 98.2237 39.8544 98.7104 39.8544Z" fill="#111B29"/>
<path d="M90.9555 39.9724C91.4422 39.9724 91.8368 39.5764 91.8368 39.0879C91.8368 38.5994 91.4422 38.2034 90.9555 38.2034C90.4688 38.2034 90.0742 38.5994 90.0742 39.0879C90.0742 39.5764 90.4688 39.9724 90.9555 39.9724Z" fill="#111B29"/>
<path d="M89.0361 37.0656C89.2216 36.5176 90.0218 35.5037 91.7387 35.8325" stroke="#111B29" stroke-width="1.2" stroke-linecap="round"/>
<path d="M97.2617 36.004C97.6712 35.648 98.785 35.1496 99.9643 36.004" stroke="#111B29" stroke-width="1.2" stroke-linecap="round"/>
<path d="M94.4191 38.4807C94.2822 39.6452 94.1891 42.0065 94.9118 42.1366" stroke="#111B29" stroke-width="1.2" stroke-linecap="round"/>
<path d="M128.511 89.8967C144.304 96.3232 172.674 103.705 159.802 81.82C155.741 75.9435 149.746 69.054 140.105 62.9749" stroke="#111B29" stroke-width="1.2" stroke-linecap="round"/>
<path d="M58.1077 73.6912C37.0158 84.482 10.5878 99.4058 25.2266 107.184C31.2192 110.368 46.5534 108.422 53.6037 105.533" stroke="#111B29" stroke-width="1.2" stroke-linecap="round"/>
</g>
<defs>
<clipPath id="clip0_1_6837">
<rect width="184" height="86" fill="white"/>
</clipPath>
</defs>
</svg>
