<svg width="96" height="40" viewBox="0 0 96 40" fill="none" xmlns="http://www.w3.org/2000/svg">
<path d="M54.9719 12.0725L58.8639 23.5214H59.0172L62.9019 12.0725H65.8811L60.6091 26.618H57.2647L52 12.0725H54.9719Z" fill="#111B29"/>
<path d="M67.734 26.618V15.7089H70.3773V26.618H67.734ZM69.0629 14.1606C68.6443 14.1606 68.2841 14.0256 67.9822 13.7557C67.6804 13.4811 67.5295 13.1521 67.5295 12.7685C67.5295 12.3803 67.6804 12.0512 67.9822 11.7813C68.2841 11.5067 68.6443 11.3694 69.0629 11.3694C69.4865 11.3694 69.8467 11.5067 70.1436 11.7813C70.4454 12.0512 70.5964 12.3803 70.5964 12.7685C70.5964 13.1521 70.4454 13.4811 70.1436 13.7557C69.8467 14.0256 69.4865 14.1606 69.0629 14.1606Z" fill="#111B29"/>
<path d="M77.2576 26.8097C76.3765 26.8097 75.5879 26.5896 74.8918 26.1492C74.1956 25.7089 73.6455 25.0697 73.2415 24.2316C72.8375 23.3935 72.6354 22.3755 72.6354 21.1776C72.6354 19.9655 72.8399 18.9428 73.2488 18.1094C73.6626 17.2714 74.22 16.6393 74.921 16.2131C75.622 15.7823 76.4033 15.5668 77.2649 15.5668C77.9221 15.5668 78.4624 15.6757 78.8859 15.8935C79.3095 16.1066 79.6454 16.3647 79.8936 16.6677C80.1419 16.966 80.3342 17.2477 80.4705 17.5129H80.58V12.0725H83.2306V26.618H80.6311V24.8992H80.4705C80.3342 25.1644 80.137 25.4461 79.879 25.7444C79.621 26.0379 79.2803 26.2889 78.8567 26.4972C78.4332 26.7056 77.9002 26.8097 77.2576 26.8097ZM77.9951 24.7004C78.5549 24.7004 79.032 24.5536 79.4263 24.26C79.8206 23.9617 80.12 23.5474 80.3244 23.0171C80.5289 22.4868 80.6311 21.8689 80.6311 21.1634C80.6311 20.4579 80.5289 19.8448 80.3244 19.3239C80.1249 18.8031 79.8279 18.3983 79.4336 18.1094C79.0442 17.8206 78.5647 17.6762 77.9951 17.6762C77.4061 17.6762 76.9144 17.8254 76.5201 18.1236C76.1258 18.4219 75.8288 18.8339 75.6293 19.3594C75.4297 19.885 75.3299 20.4863 75.3299 21.1634C75.3299 21.8452 75.4297 22.4537 75.6293 22.9887C75.8337 23.519 76.1331 23.938 76.5274 24.2458C76.9266 24.5488 77.4158 24.7004 77.9951 24.7004Z" fill="#111B29"/>
<path d="M91.0127 26.831C89.8882 26.831 88.9171 26.6038 88.0992 26.1492C87.2863 25.6899 86.6607 25.0413 86.2226 24.2032C85.7845 23.3604 85.5654 22.3684 85.5654 21.2273C85.5654 20.1052 85.7845 19.1203 86.2226 18.2728C86.6656 17.4205 87.2839 16.7576 88.0773 16.2842C88.8708 15.8059 89.803 15.5668 90.874 15.5668C91.5653 15.5668 92.2176 15.6757 92.8309 15.8935C93.4492 16.1066 93.9944 16.438 94.4666 16.8879C94.9436 17.3377 95.3185 17.9106 95.5911 18.6066C95.8637 19.2979 96 20.1218 96 21.0782V21.8665H86.8068V20.1336H93.4662C93.4613 19.6412 93.3518 19.2032 93.1376 18.8197C92.9234 18.4314 92.624 18.126 92.2395 17.9035C91.8598 17.6809 91.4168 17.5697 90.9105 17.5697C90.3702 17.5697 89.8955 17.6975 89.4866 17.9532C89.0777 18.2041 88.7589 18.5356 88.5301 18.9475C88.3061 19.3547 88.1917 19.8021 88.1869 20.2898V21.8026C88.1869 22.4371 88.3061 22.9816 88.5447 23.4361C88.7832 23.886 89.1166 24.2316 89.545 24.4731C89.9734 24.7098 90.4748 24.8282 91.0492 24.8282C91.4338 24.8282 91.7819 24.7761 92.0934 24.6719C92.405 24.563 92.6752 24.4044 92.9039 24.1961C93.1327 23.9878 93.3056 23.7297 93.4224 23.4219L95.8905 23.6918C95.7347 24.3263 95.4377 24.8803 94.9996 25.3538C94.5664 25.8225 94.0114 26.1871 93.3348 26.4475C92.6581 26.7032 91.8841 26.831 91.0127 26.831Z" fill="#111B29"/>
<path d="M2.73742 25.4645C1.75419 24.9363 1.75419 23.505 2.73742 22.9769L17.4122 15.0937C19.0313 14.2239 20.9687 14.2239 22.5878 15.0937L37.2626 22.9769C38.2458 23.505 38.2458 24.9363 37.2626 25.4645L22.5878 33.3477C20.9687 34.2174 19.0313 34.2174 17.4122 33.3477L2.73742 25.4645Z" fill="#111B29"/>
<path d="M2.73742 17.0231C1.75419 16.495 1.75419 15.0637 2.73742 14.5355L17.4122 6.65231C19.0313 5.78256 20.9687 5.78256 22.5878 6.65231L37.2626 14.5355C38.2458 15.0637 38.2458 16.495 37.2626 17.0231L22.5878 24.9063C20.9687 25.7761 19.0313 25.7761 17.4122 24.9063L2.73742 17.0231Z" fill="#111B29"/>
<path fill-rule="evenodd" clip-rule="evenodd" d="M31.7211 20.0003L22.5878 24.9063C20.9687 25.7761 19.0313 25.7761 17.4122 24.9063L8.27892 20.0003L17.4122 15.0937C19.0313 14.2239 20.9687 14.2239 22.5878 15.0937L31.7211 20.0003Z" fill="white"/>
</svg>
